<svg xmlns="http://www.w3.org/2000/svg" viewBox="0 0 934.4 369.01"><defs><style>.cls-1{fill:#8bd0dc}.cls-3{fill:#fff}</style></defs><g id="Snowflake"><path class="cls-1" d="m184.51 0-34.52 83.83 34.52 83.82 34.53-83.82L184.51 0zM314.97 54.05l-83.68 34.86-34.86 83.68 83.68-34.86 34.86-83.68zM369.01 184.51l-83.83-34.52-83.83 34.52 83.83 34.53 83.83-34.53zM314.96 314.97l-34.86-83.68-83.69-34.86 34.87 83.68 83.68 34.86zM184.5 369.01l34.52-83.83-34.52-83.83-34.53 83.83 34.53 83.83zM54.03 314.96l83.69-34.86 34.86-83.69-83.68 34.87-34.87 83.68zM0 184.5l83.83 34.52 83.82-34.52-83.82-34.53L0 184.5zM54.05 54.03l34.86 83.69 83.68 34.86-34.86-83.68-83.68-34.87z"/></g><g id="Text"><path style="fill:#231f20" d="M387.97 132.62H934.4v95.29H387.97z"/><path class="cls-3" d="M439.84 228.37q-9.64-2.76-14-6.81a13 13 0 0 1-4.4-10 13.77 13.77 0 0 1 5.37-11.12q5.37-4.4 14-4.39a23.3 23.3 0 0 1 10.45 2.27 17.16 17.16 0 0 1 7.11 6.25 16 16 0 0 1 2.52 8.71h-7.54a10.41 10.41 0 0 0-3.28-8.14q-3.28-3-9.26-3-5.55 0-8.65 2.45a8.16 8.16 0 0 0-3.11 6.79 7.34 7.34 0 0 0 2.95 5.89q3 2.4 10 4.4a46.53 46.53 0 0 1 11.09 4.4 16.87 16.87 0 0 1 5.94 5.6 14.32 14.32 0 0 1 1.94 7.54 13.3 13.3 0 0 1-5.4 11.08q-5.39 4.16-14.41 4.16a26.71 26.71 0 0 1-10.94-2.25 18.51 18.51 0 0 1-7.83-6.15 15 15 0 0 1-2.75-8.87h7.54a9.83 9.83 0 0 0 3.8 8.15q3.81 3 10.18 3c4 0 7-.8 9.1-2.42a7.86 7.86 0 0 0 3.17-6.6 7.71 7.71 0 0 0-2.93-6.46q-2.97-2.25-10.66-4.48ZM514.25 253.73h-7.53l-28.64-43.83v43.83h-7.54v-56.88h7.54l28.71 44v-44h7.46ZM571.33 227.12a35.07 35.07 0 0 1-2.82 14.59 21.26 21.26 0 0 1-8 9.52 22 22 0 0 1-12 3.28 21.22 21.22 0 0 1-20-12.72 33.75 33.75 0 0 1-2.95-14.16v-4.1a34.76 34.76 0 0 1 2.87-14.53 21.1 21.1 0 0 1 20-13 22.08 22.08 0 0 1 12.06 3.3 21.25 21.25 0 0 1 8 9.57 35.26 35.26 0 0 1 2.82 14.59Zm-7.47-3.67q0-10.11-4.06-15.52a13.4 13.4 0 0 0-11.37-5.41 13.24 13.24 0 0 0-11.19 5.41q-4.08 5.4-4.2 15v4.18q0 9.81 4.13 15.41a13.28 13.28 0 0 0 11.34 5.61q7.28 0 11.25-5.29t4.1-15.18ZM594.84 235.8l1.09 7.5 1.61-6.76 11.25-39.69h6.32l11 39.69 1.56 6.87 1.21-7.65 8.83-38.91h7.54l-13.79 56.88h-6.83l-11.72-41.45-.9-4.34-.9 4.34-12.15 41.45h-6.83l-13.75-56.88h7.5ZM670.9 225.41l14.84-28.56h8.51l-19.6 35.67v21.21h-7.5v-21.21l-19.61-35.67h8.59ZM733 228.61h-23.9v25.12h-7.5v-56.88h35.23V203H709.1v19.5H733ZM753.36 247.59h26.95v6.14h-34.49v-56.88h7.54ZM821 238.84h-23.82l-5.35 14.89h-7.73l21.72-56.88h6.56l21.76 56.88h-7.7Zm-21.56-6.13h19.34l-9.69-26.6ZM856.25 227.28l-7 7.23v19.22h-7.5v-56.88h7.5V225l25.28-28.13h9.06L861.25 222l24.14 31.76h-9ZM924.1 227.44h-24.65v20.15h28.63v6.14H892v-56.88h35.74V203h-28.29v18.3h24.65Z" transform="translate(-12.46 -45.84)"/></g></svg>